REM DIRINDEX 1\2\4,1\2\5,1\2\6,1\3\7,1\3\8,1\3\9,1\3\10
REM DIRNAME folder01,folder02,folder03,folder04,folder05,folder06,folder07,folder08,folder09,folder10
TITLE ""
FILE "b_128.mp3" MP3
  TRACK 01 AUDIO
    TITLE "0:"
    INDEX 01 00:00:00
  TRACK 02 AUDIO
    TITLE "7:cjc057_08007"
    INDEX 01 00:00:13
  TRACK 03 AUDIO
    TITLE "0:"
    INDEX 01 00:01:34
  TRACK 04 AUDIO
    TITLE "8:cjc057_08008"
    INDEX 01 00:01:64
  TRACK 05 AUDIO
    TITLE "0:"
    INDEX 01 00:02:57
  TRACK 06 AUDIO
    TITLE "7:cjc057_08009"
    INDEX 01 00:03:66
  TRACK 07 AUDIO
    TITLE "0:"
    INDEX 01 00:05:18
  TRACK 08 AUDIO
    TITLE "8:cjc057_08010"
    INDEX 01 00:05:52
  TRACK 09 AUDIO
    TITLE "0:"
    INDEX 01 00:07:15
  TRACK 10 AUDIO
    TITLE "7:cjc057_08011"
    INDEX 01 00:08:24
  TRACK 11 AUDIO
    TITLE "0:"
    INDEX 01 00:09:30
  TRACK 12 AUDIO
    TITLE "8:cjc057_08012"
    INDEX 01 00:09:65
  TRACK 13 AUDIO
    TITLE "0:"
    INDEX 01 00:11:70
  TRACK 14 AUDIO
    TITLE "7:cjc057_08013"
    INDEX 01 00:13:04
  TRACK 15 AUDIO
    TITLE "0:"
    INDEX 01 00:14:25
  TRACK 16 AUDIO
    TITLE "8:cjc057_08014"
    INDEX 01 00:14:60
  TRACK 17 AUDIO
    TITLE "0:"
    INDEX 01 00:15:72
  TRACK 18 AUDIO
    TITLE "7:cjc057_08015"
    INDEX 01 00:17:06
  TRACK 19 AUDIO
    TITLE "0:"
    INDEX 01 00:18:33
  TRACK 20 AUDIO
    TITLE "8:cjc057_08016"
    INDEX 01 00:18:68
  TRACK 21 AUDIO
    TITLE "0:"
    INDEX 01 00:20:18
  TRACK 22 AUDIO
    TITLE "7:cjc057_08017"
    INDEX 01 00:21:29
  TRACK 23 AUDIO
    TITLE "0:"
    INDEX 01 00:23:06
  TRACK 24 AUDIO
    TITLE "8:cjc057_08018"
    INDEX 01 00:23:38
  TRACK 25 AUDIO
    TITLE "0:"
    INDEX 01 00:26:09
  TRACK 26 AUDIO
    TITLE "7:cjc057_08019"
    INDEX 01 00:27:18
  TRACK 27 AUDIO
    TITLE "0:"
    INDEX 01 00:28:33
  TRACK 28 AUDIO
    TITLE "8:cjc057_08020"
    INDEX 01 00:28:68
  TRACK 29 AUDIO
    TITLE "0:"
    INDEX 01 00:30:10
  TRACK 30 AUDIO
    TITLE "7:cjc057_08021"
    INDEX 01 00:31:18
  TRACK 31 AUDIO
    TITLE "0:"
    INDEX 01 00:32:27
  TRACK 32 AUDIO
    TITLE "8:cjc057_08022"
    INDEX 01 00:32:62
  TRACK 33 AUDIO
    TITLE "0:"
    INDEX 01 00:35:10
  TRACK 34 AUDIO
    TITLE "7:cjc057_08023"
    INDEX 01 00:36:21
  TRACK 35 AUDIO
    TITLE "0:"
    INDEX 01 00:37:63
  TRACK 36 AUDIO
    TITLE "8:cjc057_08024"
    INDEX 01 00:38:22
  TRACK 37 AUDIO
    TITLE "0:"
    INDEX 01 00:41:10
  TRACK 38 AUDIO
    TITLE "7:cjc057_08025"
    INDEX 01 00:42:18
  TRACK 39 AUDIO
    TITLE "0:"
    INDEX 01 00:43:44
  TRACK 40 AUDIO
    TITLE "8:cjc057_08026"
    INDEX 01 00:44:03
  TRACK 41 AUDIO
    TITLE "0:"
    INDEX 01 00:45:37
  TRACK 42 AUDIO
    TITLE "7:cjc057_08027"
    INDEX 01 00:46:45
  TRACK 43 AUDIO
    TITLE "0:"
    INDEX 01 00:48:00
  TRACK 44 AUDIO
    TITLE "8:cjc057_08028"
    INDEX 01 00:48:34
  TRACK 45 AUDIO
    TITLE "0:"
    INDEX 01 00:51:09
  TRACK 46 AUDIO
    TITLE "7:cjc057_08029"
    INDEX 01 00:52:20
  TRACK 47 AUDIO
    TITLE "0:"
    INDEX 01 00:53:45
  TRACK 48 AUDIO
    TITLE "8:cjc057_08030"
    INDEX 01 00:54:05
  TRACK 49 AUDIO
    TITLE "0:"
    INDEX 01 00:57:37
  TRACK 50 AUDIO
    TITLE "7:cjc057_08031"
    INDEX 01 00:58:46
  TRACK 51 AUDIO
    TITLE "0:"
    INDEX 01 00:59:73
  TRACK 52 AUDIO
    TITLE "8:cjc057_08032"
    INDEX 01 01:00:29
  TRACK 53 AUDIO
    TITLE "0:"
    INDEX 01 01:02:34
  TRACK 54 AUDIO
    TITLE "7:cjc057_08033"
    INDEX 01 01:03:43
  TRACK 55 AUDIO
    TITLE "0:"
    INDEX 01 01:04:70
  TRACK 56 AUDIO
    TITLE "8:cjc057_08034"
    INDEX 01 01:05:30
  TRACK 57 AUDIO
    TITLE "0:"
    INDEX 01 01:06:40
  TRACK 58 AUDIO
    TITLE "7:cjc057_08035"
    INDEX 01 01:07:47
  TRACK 59 AUDIO
    TITLE "0:"
    INDEX 01 01:09:03
  TRACK 60 AUDIO
    TITLE "8:cjc057_08036"
    INDEX 01 01:09:36
  TRACK 61 AUDIO
    TITLE "0:"
    INDEX 01 01:10:61
  TRACK 62 AUDIO
    TITLE "7:cjc057_08037"
    INDEX 01 01:11:68
  TRACK 63 AUDIO
    TITLE "0:"
    INDEX 01 01:13:16
  TRACK 64 AUDIO
    TITLE "8:cjc057_08038"
    INDEX 01 01:13:45
  TRACK 65 AUDIO
    TITLE "0:"
    INDEX 01 01:16:61
  TRACK 66 AUDIO
    TITLE "7:cjc057_08039"
    INDEX 01 01:17:69
  TRACK 67 AUDIO
    TITLE "0:"
    INDEX 01 01:19:48
  TRACK 68 AUDIO
    TITLE "8:cjc057_08040"
    INDEX 01 01:20:04
  TRACK 69 AUDIO
    TITLE "0:"
    INDEX 01 01:21:23
  TRACK 70 AUDIO
    TITLE "7:cjc057_08041"
    INDEX 01 01:22:33
  TRACK 71 AUDIO
    TITLE "0:"
    INDEX 01 01:24:16
  TRACK 72 AUDIO
    TITLE "8:cjc057_08042"
    INDEX 01 01:24:49
  TRACK 73 AUDIO
    TITLE "0:"
    INDEX 01 01:27:06
  TRACK 74 AUDIO
    TITLE "7:cjc057_08043"
    INDEX 01 01:28:12
  TRACK 75 AUDIO
    TITLE "0:"
    INDEX 01 01:29:27
  TRACK 76 AUDIO
    TITLE "8:cjc057_08044"
    INDEX 01 01:29:60
  TRACK 77 AUDIO
    TITLE "0:"
    INDEX 01 01:32:49
  TRACK 78 AUDIO
    TITLE "7:cjc057_08045"
    INDEX 01 01:33:58
  TRACK 79 AUDIO
    TITLE "0:"
    INDEX 01 01:35:16
  TRACK 80 AUDIO
    TITLE "8:cjc057_08046"
    INDEX 01 01:35:49
  TRACK 81 AUDIO
    TITLE "0:"
    INDEX 01 01:38:22
  TRACK 82 AUDIO
    TITLE "7:cjc057_08047"
    INDEX 01 01:39:31
  TRACK 83 AUDIO
    TITLE "0:"
    INDEX 01 01:40:64
  TRACK 84 AUDIO
    TITLE "8:cjc057_08048"
    INDEX 01 01:41:20
  TRACK 85 AUDIO
    TITLE "0:"
    INDEX 01 01:43:45
  TRACK 86 AUDIO
    TITLE "7:cjc057_08049"
    INDEX 01 01:44:56
  TRACK 87 AUDIO
    TITLE "0:"
    INDEX 01 01:46:23
  TRACK 88 AUDIO
    TITLE "8:cjc057_08050"
    INDEX 01 01:46:53
  TRACK 89 AUDIO
    TITLE "0:"
    INDEX 01 01:49:22
  TRACK 90 AUDIO
    TITLE "7:cjc057_08051"
    INDEX 01 01:50:31
  TRACK 91 AUDIO
    TITLE "0:"
    INDEX 01 01:52:02
  TRACK 92 AUDIO
    TITLE "8:cjc057_08052"
    INDEX 01 01:52:36
  TRACK 93 AUDIO
    TITLE "0:"
    INDEX 01 01:54:64
  TRACK 94 AUDIO
    TITLE "7:cjc057_08053"
    INDEX 01 01:55:67
  TRACK 95 AUDIO
    TITLE "0:"
    INDEX 01 01:57:45
  TRACK 96 AUDIO
    TITLE "8:cjc057_08054"
    INDEX 01 01:58:01
  TRACK 97 AUDIO
    TITLE "0:"
    INDEX 01 02:00:37
  TRACK 98 AUDIO
    TITLE "7:cjc057_08055"
    INDEX 01 02:01:46
  TRACK 99 AUDIO
    TITLE "0:"
    INDEX 01 02:03:06
  TRACK 100 AUDIO
    TITLE "8:cjc057_08056"
    INDEX 01 02:03:41
  TRACK 101 AUDIO
    TITLE "0:"
    INDEX 01 02:05:01
  TRACK 102 AUDIO
    TITLE "7:cjc057_08057"
    INDEX 01 02:06:06
  TRACK 103 AUDIO
    TITLE "0:"
    INDEX 01 02:07:27
  TRACK 104 AUDIO
    TITLE "8:cjc057_08058"
    INDEX 01 02:07:61
  TRACK 105 AUDIO
    TITLE "0:"
    INDEX 01 02:08:72
  TRACK 106 AUDIO
    TITLE "7:cjc057_08059"
    INDEX 01 02:10:06
  TRACK 107 AUDIO
    TITLE "0:"
    INDEX 01 02:11:31
  TRACK 108 AUDIO
    TITLE "8:cjc057_08060"
    INDEX 01 02:11:66
  TRACK 109 AUDIO
    TITLE "0:"
    INDEX 01 02:12:70
